<?xml version="1.0" encoding="UTF-8" standalone="no"?>
<svg width="512px" height="512px" viewBox="0 0 512 512" version="1.1" xmlns="http://www.w3.org/2000/svg" xmlns:xlink="http://www.w3.org/1999/xlink" xmlns:sketch="http://www.bohemiancoding.com/sketch/ns">
    <!-- Generator: Sketch 3.4.4 (17249) - http://www.bohemiancoding.com/sketch -->
    <title>www.icon.com copy</title>
    <desc>Created with Sketch.</desc>
    <defs></defs>
    <g id="Page-1" stroke="none" stroke-width="1" fill="none" fill-rule="evenodd" sketch:type="MSPage">
        <g id="www.icon.com-copy" sketch:type="MSArtboardGroup" fill="#333333">
            <g id="Path-Copy-2-+-Path-Copy" sketch:type="MSLayerGroup" transform="translate(75.000000, 13.000000)">
                <path d="M33.8157981,185.246522 L31.9237644,210.206071 C31.9237644,210.206071 0.345801958,210.206069 0.345801959,157.887378 C0.345801959,66.8363085 81.9572312,0.174426934 180.799891,0.174426934 C276.117475,0.174426934 362.891192,66.9501354 362.929185,157.88738 C362.891192,210.206069 329.840653,210.206071 329.840653,210.206071 L327.571644,185.246522 L323.953043,185.246522 C323.953043,185.246522 327.090862,219.63533 327.455308,222.410135 C328.63977,231.844474 335.283776,237.319378 344.941085,237.586186 C346.34402,257.831594 353.511527,291.235982 317.120973,292.175147 C278.965425,293.167673 259.033388,295.142054 259.673049,328.119549 C240.731454,351.918842 190.089348,352.001312 179.018668,352.001312 C167.960167,352.001312 120.802729,351.918842 101.890702,328.119549 C102.537805,295.142054 82.6062228,293.167673 44.4627723,292.175147 C8.06056728,291.235982 15.2126397,257.831594 16.6553416,237.586186 C26.3127148,237.319378 32.9235864,231.844474 34.1333713,222.410135 C34.4449551,219.848776 37.6451804,185.246522 37.6451804,185.246522 L33.8157981,185.246522 Z M298.746694,179.208813 C298.746694,179.208813 308.545962,166.944155 314.414532,117.628547 C316.114067,68.3129391 308.603039,52.375827 308.603039,52.375827 C308.603039,52.375827 300.322287,79.2378063 283.932155,95.4754646 C268.049404,108.760907 248.18157,111.631523 243.781251,119.884339 C256.599615,171.116564 298.746694,179.208813 298.746694,179.208813 Z M63.108094,179.208813 C63.108094,179.208813 53.3176296,166.944155 47.4833231,117.628547 C45.8161966,68.3129391 53.3372988,52.375827 53.3372988,52.375827 C53.3372988,52.375827 61.6009586,79.2378063 77.9804901,95.4754646 C93.8544164,108.760907 113.720326,111.631523 118.115077,119.884339 C105.260994,171.116564 63.108094,179.208813 63.108094,179.208813 Z M222.661659,352.751761 L223.506925,371.756531 L206.314204,375.555039 C206.314204,375.555039 206.254302,374.437138 206.213178,373.485779 C205.953724,367.769659 205.372785,356.337419 205.372785,356.337419 C211.055758,355.571125 217.247953,353.965058 222.661659,352.751761 Z M183.776758,378.698646 L183.498022,358.456978 C189.436598,358.361192 195.678192,357.81296 201.561052,357.206311 L202.042915,376.778057 L183.776758,378.698646 Z M246.194336,362.194626 L244.615163,345.256355 C249.332645,342.733973 253.603488,339.84441 257.274144,336.71538 L259.348262,352.344566 L246.194336,362.194626 Z M119.083252,384.975842 L136.177775,371.032137 L137.332202,351.880225 C132.029369,350.22177 127.011368,348.954695 122.258557,346.78855 L119.083252,384.975842 Z M244.548215,384.975842 L227.453692,371.032137 L226.268095,351.842987 C231.570928,350.184532 236.620099,348.954695 241.37291,346.78855 L244.548215,384.975842 Z M116.883262,362.194626 L118.451192,345.256355 C113.73203,342.733973 109.459261,339.84441 105.786517,336.71538 L103.722807,352.344566 L116.883262,362.194626 Z M178.985946,378.580322 L179.248883,358.338654 C173.310018,358.242868 167.067787,357.694636 161.184264,357.087987 L160.717313,376.659733 L178.985946,378.580322 Z M140.627494,352.849949 L139.793993,371.854719 L156.988263,375.653228 C156.988263,375.653228 157.047511,374.535326 157.088076,373.583967 C157.34414,367.867847 157.918132,356.435607 157.918132,356.435607 C152.234847,355.669314 146.041821,354.063246 140.627494,352.849949 Z M254.849235,257.250771 C267.46232,259.041699 296.775783,253.159095 301.829584,240.969193 C306.756033,228.779292 297.84868,199.074495 297.84868,199.074495 C297.84868,199.074495 271.054948,219.726599 257.783027,225.796011 C240.31771,233.691497 206.076689,240.969191 206.076689,240.969191 C206.076689,240.969191 195.242665,248.615203 254.849235,257.250771 Z M107.286013,257.250771 C94.6722253,259.041699 65.3610725,253.159095 60.3120777,240.969193 C55.3904597,228.779292 64.3096852,199.074495 64.3096852,199.074495 C64.3096852,199.074495 91.0951483,219.726599 104.364652,225.796011 C121.826833,233.691497 156.064972,240.969191 156.064972,240.969191 C156.064972,240.969191 166.895978,248.615203 107.286013,257.250771 Z M253.858952,426.074922 C237.74223,438.27748 214.606761,446.559104 181.822594,446.739914 C181.656504,446.74083 181.490692,446.741557 181.325156,446.742095 C181.159621,446.741557 180.993808,446.74083 180.827718,446.739914 C148.043552,446.559104 124.908083,438.27748 108.79136,426.074922 C80.4814264,401.962302 84.2314922,363.290625 87.1405908,346.737233 C117.235746,299.450585 57.5408918,294.219798 38.4911842,301.228444 C29.562043,309.163679 31.460361,385.591802 128.161954,481.27123 C140.583422,490.939381 174.161055,485.71485 181.325156,484.444589 C188.489257,485.71485 222.066891,490.939381 234.488359,481.27123 C331.189952,385.591802 333.08827,309.163679 324.159128,301.228444 C305.109421,294.219798 245.414567,299.450585 275.509722,346.737233 C278.41882,363.290625 282.168886,401.962302 253.858952,426.074922 Z M180.863992,251.907365 C180.863992,251.907365 184.120058,263.474749 191.019463,274.333672 C196.324448,282.568693 205.685869,289.515883 206.213118,295.772722 C207.899533,315.441666 185.341011,314.446328 180.845814,304.334394 C176.248817,314.569644 153.812934,315.441666 155.47503,295.772722 C156.006636,289.515661 164.722587,282.568929 170.039401,274.333672 C176.954027,263.475113 180.863992,251.907365 180.863992,251.907365 Z M205.468515,416.295181 C211.693037,415.380525 218.546289,413.463506 224.546669,412.015301 L223.314991,435.802011 C223.314991,435.802011 217.597715,438.091638 214.553103,438.847295 C211.508492,439.602952 204.550209,440.910174 204.550209,440.910174 L205.468515,416.295181 Z M201.616914,441.581685 C201.616914,441.581685 197.414384,442.291621 192.392005,442.824557 C187.369626,443.357493 182.30556,443.235511 182.30556,443.235511 L182.862532,419.001933 C182.862532,419.001933 188.187813,419.206369 193.045536,418.605066 C197.903259,418.003763 202.30202,417.084208 202.30202,417.084208 L201.616914,441.581685 Z M261.720559,412.384488 C261.720559,412.384488 257.378402,417.17305 254.654527,419.402584 C252.108762,421.48633 245.911639,425.324328 245.911639,425.324328 L246.124502,403.072837 C251.439784,399.759231 256.220632,395.963265 260.256545,391.852717 L261.720559,412.384488 Z M243.340914,426.920167 C243.340914,426.920167 237.80669,430.140698 235.045556,431.399774 C232.059551,432.761391 226.099497,434.782245 226.099497,434.782245 L227.04407,411.175266 C232.970233,409.142328 238.626038,406.943435 243.991615,404.288169 L243.340914,426.920167 Z M156.132877,416.295181 C149.908355,415.380525 143.055103,413.463506 137.054722,412.015301 L138.2864,435.802011 C138.2864,435.802011 144.003677,438.091638 147.048288,438.847295 C150.0929,439.602952 157.051183,440.910174 157.051183,440.910174 L156.132877,416.295181 Z M159.984478,441.581685 C159.984478,441.581685 164.187008,442.291621 169.209387,442.824557 C174.231765,443.357493 179.295832,443.235511 179.295832,443.235511 L178.73886,419.001933 C178.73886,419.001933 173.413579,419.206369 168.555856,418.605066 C163.698133,418.003763 159.299372,417.084208 159.299372,417.084208 L159.984478,441.581685 Z M99.880833,412.384488 C99.880833,412.384488 104.22299,417.17305 106.946865,419.402584 C109.49263,421.48633 115.689753,425.324328 115.689753,425.324328 L115.476889,403.072837 C110.161608,399.759231 105.38076,395.963265 101.344847,391.852717 L99.880833,412.384488 Z M118.260478,426.920167 C118.260478,426.920167 123.794702,430.140698 126.555836,431.399774 C129.541841,432.761391 135.501895,434.782245 135.501895,434.782245 L134.557322,411.175266 C128.631159,409.142328 122.975354,406.943435 117.609777,404.288169 L118.260478,426.920167 Z" id="Path-Copy" sketch:type="MSShapeGroup"></path>
            </g>
        </g>
    </g>
</svg>